<svg width="820" height="953" viewBox="0 0 820 953" fill="none" xmlns="http://www.w3.org/2000/svg">
<path d="M50.4276 0H42.8022L0 43.3988V50.2988H7.22238L50.4276 6.72606L50.4276 0Z" fill="#3E3D5F"/>
<path d="M0 0V7.80276H42.2381V50.2343H50.4278V0H0Z" fill="#3E3D5F"/>
<path d="M50.4276 656.51H42.8022L0 699.909V706.809H7.22238L50.4276 663.236L50.4276 656.51Z" fill="#3E3D5F"/>
<path d="M0 656.51V664.313H42.2381V706.744H50.4278V656.51H0Z" fill="#3E3D5F"/>
<path d="M50.4276 328.255H42.8022L0 371.654V378.554H7.22238L50.4276 334.981L50.4276 328.255Z" fill="#3E3D5F"/>
<path d="M0 328.255V336.058H42.2381V378.489H50.4278V328.255H0Z" fill="#3E3D5F"/>
<path d="M50.4276 164.128H42.8022L0 207.526V214.426H7.22238L50.4276 170.854L50.4276 164.128Z" fill="#3E3D5F"/>
<path d="M0 164.128V171.93H42.2381V214.362H50.4278V164.128H0Z" fill="#3E3D5F"/>
<path d="M50.4276 820.638H42.8022L0 864.036V870.936H7.22238L50.4276 827.364L50.4276 820.638Z" fill="#3E3D5F"/>
<path d="M0 820.638V828.44H42.2381V870.872H50.4278V820.638H0Z" fill="#3E3D5F"/>
<path d="M50.4276 492.383H42.8022L0 535.781V542.681H7.22238L50.4276 499.109L50.4276 492.383Z" fill="#3E3D5F"/>
<path d="M0 492.383V500.185H42.2381V542.617H50.4278V492.383H0Z" fill="#3E3D5F"/>
<path d="M50.4276 0H42.8022L0 43.3988V50.2988H7.22238L50.4276 6.72606L50.4276 0Z" fill="#3E3D5F"/>
<path d="M0 0V7.80276H42.2381V50.2343H50.4278V0H0Z" fill="#3E3D5F"/>
<path d="M50.4276 656.51H42.8022L0 699.909V706.809H7.22238L50.4276 663.236L50.4276 656.51Z" fill="#3E3D5F"/>
<path d="M0 656.51V664.313H42.2381V706.744H50.4278V656.51H0Z" fill="#3E3D5F"/>
<path d="M50.4276 328.255H42.8022L0 371.654V378.554H7.22238L50.4276 334.981L50.4276 328.255Z" fill="#3E3D5F"/>
<path d="M0 328.255V336.058H42.2381V378.489H50.4278V328.255H0Z" fill="#3E3D5F"/>
<path d="M50.4276 164.128H42.8022L0 207.526V214.426H7.22238L50.4276 170.854L50.4276 164.128Z" fill="#3E3D5F"/>
<path d="M0 164.128V171.93H42.2381V214.362H50.4278V164.128H0Z" fill="#3E3D5F"/>
<path d="M50.4276 820.638H42.8022L0 864.036V870.936H7.22238L50.4276 827.364L50.4276 820.638Z" fill="#3E3D5F"/>
<path d="M0 820.638V828.44H42.2381V870.872H50.4278V820.638H0Z" fill="#3E3D5F"/>
<path d="M50.4276 492.383H42.8022L0 535.781V542.681H7.22238L50.4276 499.109L50.4276 492.383Z" fill="#3E3D5F"/>
<path d="M0 492.383V500.185H42.2381V542.617H50.4278V492.383H0Z" fill="#3E3D5F"/>
<path d="M135.841 82.0638H128.216L85.4133 125.463V132.363H92.6357L135.841 88.7898L135.841 82.0638Z" fill="#3E3D5F"/>
<path d="M85.4133 82.0638V89.8665H127.651V132.298H135.841V82.0638H85.4133Z" fill="#3E3D5F"/>
<path d="M135.841 738.574H128.216L85.4133 781.973V788.873H92.6357L135.841 745.3L135.841 738.574Z" fill="#3E3D5F"/>
<path d="M85.4133 738.574V746.376H127.651V788.808H135.841V738.574H85.4133Z" fill="#3E3D5F"/>
<path d="M135.841 410.319H128.216L85.4133 453.718V460.618H92.6357L135.841 417.045L135.841 410.319Z" fill="#3E3D5F"/>
<path d="M85.4133 410.319V418.121H127.651V460.553H135.841V410.319H85.4133Z" fill="#3E3D5F"/>
<path d="M135.841 246.191H128.216L85.4133 289.59V296.49H92.6357L135.841 252.917L135.841 246.191Z" fill="#3E3D5F"/>
<path d="M85.4133 246.191V253.994H127.651V296.426H135.841V246.191H85.4133Z" fill="#3E3D5F"/>
<path d="M135.841 902.701H128.216L85.4133 946.1V953H92.6357L135.841 909.427L135.841 902.701Z" fill="#3E3D5F"/>
<path d="M85.4133 902.701V910.504H127.651V952.936H135.841V902.701H85.4133Z" fill="#3E3D5F"/>
<path d="M135.841 574.446H128.216L85.4133 617.845V624.745H92.6357L135.841 581.172L135.841 574.446Z" fill="#3E3D5F"/>
<path d="M85.4133 574.446V582.249H127.651V624.681H135.841V574.446H85.4133Z" fill="#3E3D5F"/>
<path d="M221.254 0H213.629L170.826 43.3988V50.2988H178.049L221.254 6.72606L221.254 0Z" fill="#3E3D5F"/>
<path d="M170.826 0V7.80276H213.065V50.2343H221.254V0H170.826Z" fill="#3E3D5F"/>
<path d="M221.254 656.51H213.629L170.826 699.909V706.809H178.049L221.254 663.236L221.254 656.51Z" fill="#3E3D5F"/>
<path d="M170.826 656.51V664.313H213.065V706.744H221.254V656.51H170.826Z" fill="#3E3D5F"/>
<path d="M221.254 328.255H213.629L170.826 371.654V378.554H178.049L221.254 334.981L221.254 328.255Z" fill="#3E3D5F"/>
<path d="M170.826 328.255V336.058H213.065V378.489H221.254V328.255H170.826Z" fill="#3E3D5F"/>
<path d="M221.254 164.128H213.629L170.826 207.526V214.426H178.049L221.254 170.854L221.254 164.128Z" fill="#3E3D5F"/>
<path d="M170.826 164.128V171.93H213.065V214.362H221.254V164.128H170.826Z" fill="#3E3D5F"/>
<path d="M221.254 820.638H213.629L170.826 864.036V870.936H178.049L221.254 827.364L221.254 820.638Z" fill="#3E3D5F"/>
<path d="M170.826 820.638V828.44H213.065V870.872H221.254V820.638H170.826Z" fill="#3E3D5F"/>
<path d="M221.254 492.383H213.629L170.826 535.781V542.681H178.049L221.254 499.109L221.254 492.383Z" fill="#3E3D5F"/>
<path d="M170.826 492.383V500.185H213.065V542.617H221.254V492.383H170.826Z" fill="#3E3D5F"/>
<path d="M306.667 82.0638H299.042L256.24 125.463V132.363H263.462L306.667 88.7898L306.667 82.0638Z" fill="#3E3D5F"/>
<path d="M256.24 82.0638V89.8665H298.478V132.298H306.668V82.0638H256.24Z" fill="#3E3D5F"/>
<path d="M306.667 738.574H299.042L256.24 781.973V788.873H263.462L306.667 745.3L306.667 738.574Z" fill="#3E3D5F"/>
<path d="M256.24 738.574V746.376H298.478V788.808H306.668V738.574H256.24Z" fill="#3E3D5F"/>
<path d="M306.667 410.319H299.042L256.24 453.718V460.618H263.462L306.667 417.045L306.667 410.319Z" fill="#3E3D5F"/>
<path d="M256.24 410.319V418.121H298.478V460.553H306.668V410.319H256.24Z" fill="#3E3D5F"/>
<path d="M306.667 246.191H299.042L256.24 289.59V296.49H263.462L306.667 252.917L306.667 246.191Z" fill="#3E3D5F"/>
<path d="M256.24 246.191V253.994H298.478V296.426H306.668V246.191H256.24Z" fill="#3E3D5F"/>
<path d="M306.667 902.701H299.042L256.24 946.1V953H263.462L306.667 909.427L306.667 902.701Z" fill="#3E3D5F"/>
<path d="M256.24 902.701V910.504H298.478V952.936H306.668V902.701H256.24Z" fill="#3E3D5F"/>
<path d="M306.667 574.446H299.042L256.24 617.845V624.745H263.462L306.667 581.172L306.667 574.446Z" fill="#3E3D5F"/>
<path d="M256.24 574.446V582.249H298.478V624.681H306.668V574.446H256.24Z" fill="#3E3D5F"/>
<path d="M392.081 0H384.455L341.653 43.3988V50.2988H348.875L392.081 6.72606L392.081 0Z" fill="#3E3D5F"/>
<path d="M341.653 0V7.80276H383.891V50.2343H392.081V0H341.653Z" fill="#3E3D5F"/>
<path d="M392.081 656.51H384.455L341.653 699.909V706.809H348.875L392.081 663.236L392.081 656.51Z" fill="#3E3D5F"/>
<path d="M341.653 656.51V664.313H383.891V706.744H392.081V656.51H341.653Z" fill="#3E3D5F"/>
<path d="M392.081 328.255H384.455L341.653 371.654V378.554H348.875L392.081 334.981L392.081 328.255Z" fill="#3E3D5F"/>
<path d="M341.653 328.255V336.058H383.891V378.489H392.081V328.255H341.653Z" fill="#3E3D5F"/>
<path d="M392.081 164.128H384.455L341.653 207.526V214.426H348.875L392.081 170.854L392.081 164.128Z" fill="#3E3D5F"/>
<path d="M341.653 164.128V171.93H383.891V214.362H392.081V164.128H341.653Z" fill="#3E3D5F"/>
<path d="M392.081 820.638H384.455L341.653 864.036V870.936H348.875L392.081 827.364L392.081 820.638Z" fill="#3E3D5F"/>
<path d="M341.653 820.638V828.44H383.891V870.872H392.081V820.638H341.653Z" fill="#3E3D5F"/>
<path d="M392.081 492.383H384.455L341.653 535.781V542.681H348.875L392.081 499.109L392.081 492.383Z" fill="#3E3D5F"/>
<path d="M341.653 492.383V500.185H383.891V542.617H392.081V492.383H341.653Z" fill="#3E3D5F"/>
<path d="M477.494 82.0638H469.869L427.066 125.463V132.363H434.289L477.494 88.7898L477.494 82.0638Z" fill="#3E3D5F"/>
<path d="M427.066 82.0638V89.8665H469.305V132.298H477.494V82.0638H427.066Z" fill="#3E3D5F"/>
<path d="M477.494 738.574H469.869L427.066 781.973V788.873H434.289L477.494 745.3L477.494 738.574Z" fill="#3E3D5F"/>
<path d="M427.066 738.574V746.376H469.305V788.808H477.494V738.574H427.066Z" fill="#3E3D5F"/>
<path d="M477.494 410.319H469.869L427.066 453.718V460.618H434.289L477.494 417.045L477.494 410.319Z" fill="#3E3D5F"/>
<path d="M427.066 410.319V418.121H469.305V460.553H477.494V410.319H427.066Z" fill="#3E3D5F"/>
<path d="M477.494 246.191H469.869L427.066 289.59V296.49H434.289L477.494 252.917L477.494 246.191Z" fill="#3E3D5F"/>
<path d="M427.066 246.191V253.994H469.305V296.426H477.494V246.191H427.066Z" fill="#3E3D5F"/>
<path d="M477.494 902.701H469.869L427.066 946.1V953H434.289L477.494 909.427L477.494 902.701Z" fill="#3E3D5F"/>
<path d="M427.066 902.701V910.504H469.305V952.936H477.494V902.701H427.066Z" fill="#3E3D5F"/>
<path d="M477.494 574.446H469.869L427.066 617.845V624.745H434.289L477.494 581.172L477.494 574.446Z" fill="#3E3D5F"/>
<path d="M427.066 574.446V582.249H469.305V624.681H477.494V574.446H427.066Z" fill="#3E3D5F"/>
<path d="M562.907 0H555.282L512.479 43.3988V50.2988H519.702L562.907 6.72606L562.907 0Z" fill="#3E3D5F"/>
<path d="M512.479 0V7.80276H554.718V50.2343H562.907V0H512.479Z" fill="#3E3D5F"/>
<path d="M562.907 656.51H555.282L512.479 699.909V706.809H519.702L562.907 663.236L562.907 656.51Z" fill="#3E3D5F"/>
<path d="M512.479 656.51V664.313H554.718V706.744H562.907V656.51H512.479Z" fill="#3E3D5F"/>
<path d="M562.907 328.255H555.282L512.479 371.654V378.554H519.702L562.907 334.981L562.907 328.255Z" fill="#3E3D5F"/>
<path d="M512.479 328.255V336.058H554.718V378.489H562.907V328.255H512.479Z" fill="#3E3D5F"/>
<path d="M562.907 164.128H555.282L512.479 207.526V214.426H519.702L562.907 170.854L562.907 164.128Z" fill="#3E3D5F"/>
<path d="M512.479 164.128V171.93H554.718V214.362H562.907V164.128H512.479Z" fill="#3E3D5F"/>
<path d="M562.907 820.638H555.282L512.479 864.036V870.936H519.702L562.907 827.364L562.907 820.638Z" fill="#3E3D5F"/>
<path d="M512.479 820.638V828.44H554.718V870.872H562.907V820.638H512.479Z" fill="#3E3D5F"/>
<path d="M562.907 492.383H555.282L512.479 535.781V542.681H519.702L562.907 499.109L562.907 492.383Z" fill="#3E3D5F"/>
<path d="M512.479 492.383V500.185H554.718V542.617H562.907V492.383H512.479Z" fill="#3E3D5F"/>
<path d="M648.321 82.0638H640.695L597.893 125.463V132.363H605.115L648.321 88.7898L648.321 82.0638Z" fill="#3E3D5F"/>
<path d="M597.893 82.0638V89.8665H640.131V132.298H648.321V82.0638H597.893Z" fill="#3E3D5F"/>
<path d="M648.321 738.574H640.695L597.893 781.973V788.873H605.115L648.321 745.3L648.321 738.574Z" fill="#3E3D5F"/>
<path d="M597.893 738.574V746.376H640.131V788.808H648.321V738.574H597.893Z" fill="#3E3D5F"/>
<path d="M648.321 410.319H640.695L597.893 453.718V460.618H605.115L648.321 417.045L648.321 410.319Z" fill="#3E3D5F"/>
<path d="M597.893 410.319V418.121H640.131V460.553H648.321V410.319H597.893Z" fill="#3E3D5F"/>
<path d="M648.321 246.191H640.695L597.893 289.59V296.49H605.115L648.321 252.917L648.321 246.191Z" fill="#3E3D5F"/>
<path d="M597.893 246.191V253.994H640.131V296.426H648.321V246.191H597.893Z" fill="#3E3D5F"/>
<path d="M648.321 902.701H640.695L597.893 946.1V953H605.115L648.321 909.427L648.321 902.701Z" fill="#3E3D5F"/>
<path d="M597.893 902.701V910.504H640.131V952.936H648.321V902.701H597.893Z" fill="#3E3D5F"/>
<path d="M648.321 574.446H640.695L597.893 617.845V624.745H605.115L648.321 581.172L648.321 574.446Z" fill="#3E3D5F"/>
<path d="M597.893 574.446V582.249H640.131V624.681H648.321V574.446H597.893Z" fill="#3E3D5F"/>
<path d="M733.734 0H726.108L683.306 43.3988V50.2988H690.529L733.734 6.72606L733.734 0Z" fill="#3E3D5F"/>
<path d="M683.306 0V7.80276H725.544V50.2343H733.734V0H683.306Z" fill="#3E3D5F"/>
<path d="M733.734 656.51H726.108L683.306 699.909V706.809H690.529L733.734 663.236L733.734 656.51Z" fill="#3E3D5F"/>
<path d="M683.306 656.51V664.313H725.544V706.744H733.734V656.51H683.306Z" fill="#3E3D5F"/>
<path d="M733.734 328.255H726.108L683.306 371.654V378.554H690.529L733.734 334.981L733.734 328.255Z" fill="#3E3D5F"/>
<path d="M683.306 328.255V336.058H725.544V378.489H733.734V328.255H683.306Z" fill="#3E3D5F"/>
<path d="M733.734 164.128H726.108L683.306 207.526V214.426H690.529L733.734 170.854L733.734 164.128Z" fill="#3E3D5F"/>
<path d="M683.306 164.128V171.93H725.544V214.362H733.734V164.128H683.306Z" fill="#3E3D5F"/>
<path d="M733.734 820.638H726.108L683.306 864.036V870.936H690.529L733.734 827.364L733.734 820.638Z" fill="#3E3D5F"/>
<path d="M683.306 820.638V828.44H725.544V870.872H733.734V820.638H683.306Z" fill="#3E3D5F"/>
<path d="M733.734 492.383H726.108L683.306 535.781V542.681H690.529L733.734 499.109L733.734 492.383Z" fill="#3E3D5F"/>
<path d="M683.306 492.383V500.185H725.544V542.617H733.734V492.383H683.306Z" fill="#3E3D5F"/>
<path d="M819.147 82.0638H811.522L768.72 125.463V132.363H775.942L819.147 88.7898L819.147 82.0638Z" fill="#3E3D5F"/>
<path d="M768.72 82.0638V89.8665H810.958V132.298H819.147V82.0638H768.72Z" fill="#3E3D5F"/>
<path d="M819.147 738.574H811.522L768.72 781.973V788.873H775.942L819.147 745.3L819.147 738.574Z" fill="#3E3D5F"/>
<path d="M768.72 738.574V746.376H810.958V788.808H819.147V738.574H768.72Z" fill="#3E3D5F"/>
<path d="M819.147 410.319H811.522L768.72 453.718V460.618H775.942L819.147 417.045L819.147 410.319Z" fill="#3E3D5F"/>
<path d="M768.72 410.319V418.121H810.958V460.553H819.147V410.319H768.72Z" fill="#3E3D5F"/>
<path d="M819.147 246.191H811.522L768.72 289.59V296.49H775.942L819.147 252.917L819.147 246.191Z" fill="#3E3D5F"/>
<path d="M768.72 246.191V253.994H810.958V296.426H819.147V246.191H768.72Z" fill="#3E3D5F"/>
<path d="M819.147 902.701H811.522L768.72 946.1V953H775.942L819.147 909.427L819.147 902.701Z" fill="#3E3D5F"/>
<path d="M768.72 902.701V910.504H810.958V952.936H819.147V902.701H768.72Z" fill="#3E3D5F"/>
<path d="M819.147 574.446H811.522L768.72 617.845V624.745H775.942L819.147 581.172L819.147 574.446Z" fill="#3E3D5F"/>
<path d="M768.72 574.446V582.249H810.958V624.681H819.147V574.446H768.72Z" fill="#3E3D5F"/>
<path d="M85.4134 0H93.0388L135.841 43.3988V50.2988H128.619L85.4134 6.72606L85.4134 0Z" fill="#3E3D5F"/>
<path d="M135.841 0V7.80276H93.603V50.2343H85.4133V0H135.841Z" fill="#3E3D5F"/>
<path d="M85.4134 656.51H93.0388L135.841 699.909V706.809H128.619L85.4134 663.236L85.4134 656.51Z" fill="#3E3D5F"/>
<path d="M135.841 656.51V664.313H93.603V706.744H85.4133V656.51H135.841Z" fill="#3E3D5F"/>
<path d="M85.4134 328.255H93.0388L135.841 371.654V378.554H128.619L85.4134 334.981L85.4134 328.255Z" fill="#3E3D5F"/>
<path d="M135.841 328.255V336.058H93.603V378.489H85.4133V328.255H135.841Z" fill="#3E3D5F"/>
<path d="M85.4134 164.128H93.0388L135.841 207.526V214.426H128.619L85.4134 170.854L85.4134 164.128Z" fill="#3E3D5F"/>
<path d="M135.841 164.128V171.93H93.603V214.362H85.4133V164.128H135.841Z" fill="#3E3D5F"/>
<path d="M85.4134 820.638H93.0388L135.841 864.036V870.936H128.619L85.4134 827.364L85.4134 820.638Z" fill="#3E3D5F"/>
<path d="M135.841 820.638V828.44H93.603V870.872H85.4133V820.638H135.841Z" fill="#3E3D5F"/>
<path d="M85.4134 492.383H93.0388L135.841 535.781V542.681H128.619L85.4134 499.109L85.4134 492.383Z" fill="#3E3D5F"/>
<path d="M135.841 492.383V500.185H93.603V542.617H85.4133V492.383H135.841Z" fill="#3E3D5F"/>
<path d="M170.827 82.0638H178.452L221.254 125.463V132.363H214.032L170.827 88.7898L170.827 82.0638Z" fill="#3E3D5F"/>
<path d="M221.254 82.0638V89.8665H179.016V132.298H170.827V82.0638H221.254Z" fill="#3E3D5F"/>
<path d="M170.827 738.574H178.452L221.254 781.973V788.873H214.032L170.827 745.3L170.827 738.574Z" fill="#3E3D5F"/>
<path d="M221.254 738.574V746.376H179.016V788.808H170.827V738.574H221.254Z" fill="#3E3D5F"/>
<path d="M170.827 410.319H178.452L221.254 453.718V460.618H214.032L170.827 417.045L170.827 410.319Z" fill="#3E3D5F"/>
<path d="M221.254 410.319V418.121H179.016V460.553H170.827V410.319H221.254Z" fill="#3E3D5F"/>
<path d="M170.827 246.191H178.452L221.254 289.59V296.49H214.032L170.827 252.917L170.827 246.191Z" fill="#3E3D5F"/>
<path d="M221.254 246.191V253.994H179.016V296.426H170.827V246.191H221.254Z" fill="#3E3D5F"/>
<path d="M170.827 902.701H178.452L221.254 946.1V953H214.032L170.827 909.427L170.827 902.701Z" fill="#3E3D5F"/>
<path d="M221.254 902.701V910.504H179.016V952.936H170.827V902.701H221.254Z" fill="#3E3D5F"/>
<path d="M170.827 574.446H178.452L221.254 617.845V624.745H214.032L170.827 581.172L170.827 574.446Z" fill="#3E3D5F"/>
<path d="M221.254 574.446V582.249H179.016V624.681H170.827V574.446H221.254Z" fill="#3E3D5F"/>
<path d="M256.24 0H263.866L306.668 43.3988V50.2988H299.446L256.24 6.72606L256.24 0Z" fill="#3E3D5F"/>
<path d="M306.668 0V7.80276H264.43V50.2343H256.24V0H306.668Z" fill="#3E3D5F"/>
<path d="M256.24 656.51H263.866L306.668 699.909V706.809H299.446L256.24 663.236L256.24 656.51Z" fill="#3E3D5F"/>
<path d="M306.668 656.51V664.313H264.43V706.744H256.24V656.51H306.668Z" fill="#3E3D5F"/>
<path d="M256.24 328.255H263.866L306.668 371.654V378.554H299.446L256.24 334.981L256.24 328.255Z" fill="#3E3D5F"/>
<path d="M306.668 328.255V336.058H264.43V378.489H256.24V328.255H306.668Z" fill="#3E3D5F"/>
<path d="M256.24 164.128H263.866L306.668 207.526V214.426H299.446L256.24 170.854L256.24 164.128Z" fill="#3E3D5F"/>
<path d="M306.668 164.128V171.93H264.43V214.362H256.24V164.128H306.668Z" fill="#3E3D5F"/>
<path d="M256.24 820.638H263.866L306.668 864.036V870.936H299.446L256.24 827.364L256.24 820.638Z" fill="#3E3D5F"/>
<path d="M306.668 820.638V828.44H264.43V870.872H256.24V820.638H306.668Z" fill="#3E3D5F"/>
<path d="M256.24 492.383H263.866L306.668 535.781V542.681H299.446L256.24 499.109L256.24 492.383Z" fill="#3E3D5F"/>
<path d="M306.668 492.383V500.185H264.43V542.617H256.24V492.383H306.668Z" fill="#3E3D5F"/>
<path d="M341.654 82.0638H349.279L392.081 125.463V132.363H384.859L341.654 88.7898L341.654 82.0638Z" fill="#3E3D5F"/>
<path d="M392.081 82.0638V89.8665H349.843V132.298H341.654V82.0638H392.081Z" fill="#3E3D5F"/>
<path d="M341.654 738.574H349.279L392.081 781.973V788.873H384.859L341.654 745.3L341.654 738.574Z" fill="#3E3D5F"/>
<path d="M392.081 738.574V746.376H349.843V788.808H341.654V738.574H392.081Z" fill="#3E3D5F"/>
<path d="M341.654 410.319H349.279L392.081 453.718V460.618H384.859L341.654 417.045L341.654 410.319Z" fill="#3E3D5F"/>
<path d="M392.081 410.319V418.121H349.843V460.553H341.654V410.319H392.081Z" fill="#3E3D5F"/>
<path d="M341.654 246.191H349.279L392.081 289.59V296.49H384.859L341.654 252.917L341.654 246.191Z" fill="#3E3D5F"/>
<path d="M392.081 246.191V253.994H349.843V296.426H341.654V246.191H392.081Z" fill="#3E3D5F"/>
<path d="M341.654 902.701H349.279L392.081 946.1V953H384.859L341.654 909.427L341.654 902.701Z" fill="#3E3D5F"/>
<path d="M392.081 902.701V910.504H349.843V952.936H341.654V902.701H392.081Z" fill="#3E3D5F"/>
<path d="M341.654 574.446H349.279L392.081 617.845V624.745H384.859L341.654 581.172L341.654 574.446Z" fill="#3E3D5F"/>
<path d="M392.081 574.446V582.249H349.843V624.681H341.654V574.446H392.081Z" fill="#3E3D5F"/>
<path d="M427.067 0H434.692L477.494 43.3988V50.2988H470.272L427.067 6.72606L427.067 0Z" fill="#3E3D5F"/>
<path d="M477.494 0V7.80276H435.256V50.2343H427.066V0H477.494Z" fill="#3E3D5F"/>
<path d="M427.067 656.51H434.692L477.494 699.909V706.809H470.272L427.067 663.236L427.067 656.51Z" fill="#3E3D5F"/>
<path d="M477.494 656.51V664.313H435.256V706.744H427.066V656.51H477.494Z" fill="#3E3D5F"/>
<path d="M427.067 328.255H434.692L477.494 371.654V378.554H470.272L427.067 334.981L427.067 328.255Z" fill="#3E3D5F"/>
<path d="M477.494 328.255V336.058H435.256V378.489H427.066V328.255H477.494Z" fill="#3E3D5F"/>
<path d="M427.067 164.128H434.692L477.494 207.526V214.426H470.272L427.067 170.854L427.067 164.128Z" fill="#3E3D5F"/>
<path d="M477.494 164.128V171.93H435.256V214.362H427.066V164.128H477.494Z" fill="#3E3D5F"/>
<path d="M427.067 820.638H434.692L477.494 864.036V870.936H470.272L427.067 827.364L427.067 820.638Z" fill="#3E3D5F"/>
<path d="M477.494 820.638V828.44H435.256V870.872H427.066V820.638H477.494Z" fill="#3E3D5F"/>
<path d="M427.067 492.383H434.692L477.494 535.781V542.681H470.272L427.067 499.109L427.067 492.383Z" fill="#3E3D5F"/>
<path d="M477.494 492.383V500.185H435.256V542.617H427.066V492.383H477.494Z" fill="#3E3D5F"/>
<path d="M512.48 82.0638H520.105L562.907 125.463V132.363H555.685L512.48 88.7898L512.48 82.0638Z" fill="#3E3D5F"/>
<path d="M562.907 82.0638V89.8665H520.669V132.298H512.479V82.0638H562.907Z" fill="#3E3D5F"/>
<path d="M512.48 738.574H520.105L562.907 781.973V788.873H555.685L512.48 745.3L512.48 738.574Z" fill="#3E3D5F"/>
<path d="M562.907 738.574V746.376H520.669V788.808H512.479V738.574H562.907Z" fill="#3E3D5F"/>
<path d="M512.48 410.319H520.105L562.907 453.718V460.618H555.685L512.48 417.045L512.48 410.319Z" fill="#3E3D5F"/>
<path d="M562.907 410.319V418.121H520.669V460.553H512.479V410.319H562.907Z" fill="#3E3D5F"/>
<path d="M512.48 246.191H520.105L562.907 289.59V296.49H555.685L512.48 252.917L512.48 246.191Z" fill="#3E3D5F"/>
<path d="M562.907 246.191V253.994H520.669V296.426H512.479V246.191H562.907Z" fill="#3E3D5F"/>
<path d="M512.48 902.701H520.105L562.907 946.1V953H555.685L512.48 909.427L512.48 902.701Z" fill="#3E3D5F"/>
<path d="M562.907 902.701V910.504H520.669V952.936H512.479V902.701H562.907Z" fill="#3E3D5F"/>
<path d="M512.48 574.446H520.105L562.907 617.845V624.745H555.685L512.48 581.172L512.48 574.446Z" fill="#3E3D5F"/>
<path d="M562.907 574.446V582.249H520.669V624.681H512.479V574.446H562.907Z" fill="#3E3D5F"/>
<path d="M597.893 0H605.519L648.321 43.3988V50.2988H641.098L597.893 6.72606L597.893 0Z" fill="#3E3D5F"/>
<path d="M648.321 0V7.80276H606.083V50.2343H597.893V0H648.321Z" fill="#3E3D5F"/>
<path d="M597.893 656.51H605.519L648.321 699.909V706.809H641.098L597.893 663.236L597.893 656.51Z" fill="#3E3D5F"/>
<path d="M648.321 656.51V664.313H606.083V706.744H597.893V656.51H648.321Z" fill="#3E3D5F"/>
<path d="M597.893 328.255H605.519L648.321 371.654V378.554H641.098L597.893 334.981L597.893 328.255Z" fill="#3E3D5F"/>
<path d="M648.321 328.255V336.058H606.083V378.489H597.893V328.255H648.321Z" fill="#3E3D5F"/>
<path d="M597.893 164.128H605.519L648.321 207.526V214.426H641.098L597.893 170.854L597.893 164.128Z" fill="#3E3D5F"/>
<path d="M648.321 164.128V171.93H606.083V214.362H597.893V164.128H648.321Z" fill="#3E3D5F"/>
<path d="M597.893 820.638H605.519L648.321 864.036V870.936H641.098L597.893 827.364L597.893 820.638Z" fill="#3E3D5F"/>
<path d="M648.321 820.638V828.44H606.083V870.872H597.893V820.638H648.321Z" fill="#3E3D5F"/>
<path d="M597.893 492.383H605.519L648.321 535.781V542.681H641.098L597.893 499.109L597.893 492.383Z" fill="#3E3D5F"/>
<path d="M648.321 492.383V500.185H606.083V542.617H597.893V492.383H648.321Z" fill="#3E3D5F"/>
<path d="M683.307 82.0638H690.932L733.734 125.463V132.363H726.512L683.307 88.7898L683.307 82.0638Z" fill="#3E3D5F"/>
<path d="M733.734 82.0638V89.8665H691.496V132.298H683.307V82.0638H733.734Z" fill="#3E3D5F"/>
<path d="M683.307 738.574H690.932L733.734 781.973V788.873H726.512L683.307 745.3L683.307 738.574Z" fill="#3E3D5F"/>
<path d="M733.734 738.574V746.376H691.496V788.808H683.307V738.574H733.734Z" fill="#3E3D5F"/>
<path d="M683.307 410.319H690.932L733.734 453.718V460.618H726.512L683.307 417.045L683.307 410.319Z" fill="#3E3D5F"/>
<path d="M733.734 410.319V418.121H691.496V460.553H683.307V410.319H733.734Z" fill="#3E3D5F"/>
<path d="M683.307 246.191H690.932L733.734 289.59V296.49H726.512L683.307 252.917L683.307 246.191Z" fill="#3E3D5F"/>
<path d="M733.734 246.191V253.994H691.496V296.426H683.307V246.191H733.734Z" fill="#3E3D5F"/>
<path d="M683.307 902.701H690.932L733.734 946.1V953H726.512L683.307 909.427L683.307 902.701Z" fill="#3E3D5F"/>
<path d="M733.734 902.701V910.504H691.496V952.936H683.307V902.701H733.734Z" fill="#3E3D5F"/>
<path d="M683.307 574.446H690.932L733.734 617.845V624.745H726.512L683.307 581.172L683.307 574.446Z" fill="#3E3D5F"/>
<path d="M733.734 574.446V582.249H691.496V624.681H683.307V574.446H733.734Z" fill="#3E3D5F"/>
<path d="M768.72 0H776.345L819.147 43.3988V50.2988H811.925L768.72 6.72606L768.72 0Z" fill="#3E3D5F"/>
<path d="M819.147 0V7.80276H776.909V50.2343H768.72V0H819.147Z" fill="#3E3D5F"/>
<path d="M768.72 656.51H776.345L819.147 699.909V706.809H811.925L768.72 663.236L768.72 656.51Z" fill="#3E3D5F"/>
<path d="M819.147 656.51V664.313H776.909V706.744H768.72V656.51H819.147Z" fill="#3E3D5F"/>
<path d="M768.72 328.255H776.345L819.147 371.654V378.554H811.925L768.72 334.981L768.72 328.255Z" fill="#3E3D5F"/>
<path d="M819.147 328.255V336.058H776.909V378.489H768.72V328.255H819.147Z" fill="#3E3D5F"/>
<path d="M768.72 164.128H776.345L819.147 207.526V214.426H811.925L768.72 170.854L768.72 164.128Z" fill="#3E3D5F"/>
<path d="M819.147 164.128V171.93H776.909V214.362H768.72V164.128H819.147Z" fill="#3E3D5F"/>
<path d="M768.72 820.638H776.345L819.147 864.036V870.936H811.925L768.72 827.364L768.72 820.638Z" fill="#3E3D5F"/>
<path d="M819.147 820.638V828.44H776.909V870.872H768.72V820.638H819.147Z" fill="#3E3D5F"/>
<path d="M768.72 492.383H776.345L819.147 535.781V542.681H811.925L768.72 499.109L768.72 492.383Z" fill="#3E3D5F"/>
<path d="M819.147 492.383V500.185H776.909V542.617H768.72V492.383H819.147Z" fill="#3E3D5F"/>
<path d="M0.000362396 82.0638H7.62575L50.428 125.463V132.363H43.2056L0.000358582 88.7898L0.000362396 82.0638Z" fill="#3E3D5F"/>
<path d="M50.428 82.0638V89.8665H8.18988V132.298H0.000205994V82.0638H50.428Z" fill="#3E3D5F"/>
<path d="M0.000362396 738.574H7.62575L50.428 781.973V788.873H43.2056L0.000358582 745.3L0.000362396 738.574Z" fill="#3E3D5F"/>
<path d="M50.428 738.574V746.376H8.18988V788.808H0.000205994V738.574H50.428Z" fill="#3E3D5F"/>
<path d="M0.000362396 410.319H7.62575L50.428 453.718V460.618H43.2056L0.000358582 417.045L0.000362396 410.319Z" fill="#3E3D5F"/>
<path d="M50.428 410.319V418.121H8.18988V460.553H0.000205994V410.319H50.428Z" fill="#3E3D5F"/>
<path d="M0.000362396 246.191H7.62575L50.428 289.59V296.49H43.2056L0.000358582 252.917L0.000362396 246.191Z" fill="#3E3D5F"/>
<path d="M50.428 246.191V253.994H8.18988V296.426H0.000205994V246.191H50.428Z" fill="#3E3D5F"/>
<path d="M0.000362396 902.701H7.62575L50.428 946.1V953H43.2056L0.000358582 909.427L0.000362396 902.701Z" fill="#3E3D5F"/>
<path d="M50.428 902.701V910.504H8.18988V952.936H0.000205994V902.701H50.428Z" fill="#3E3D5F"/>
<path d="M0.000362396 574.446H7.62575L50.428 617.845V624.745H43.2056L0.000358582 581.172L0.000362396 574.446Z" fill="#3E3D5F"/>
<path d="M50.428 574.446V582.249H8.18988V624.681H0.000205994V574.446H50.428Z" fill="#3E3D5F"/>
<rect x="181" y="223" width="454" height="454" fill="white"/>
<path d="M475.533 530.949C485.018 536.708 489.76 545.099 489.76 556.121C489.76 565.753 486.435 573.349 479.786 578.909C473.235 584.47 464.288 587.25 452.945 587.25C441.504 587.25 432.508 584.47 425.957 578.909C419.405 573.349 416.13 565.753 416.13 556.121C416.13 545.099 420.823 536.708 430.21 530.949C423.072 525.686 419.503 518.487 419.503 509.352C419.503 499.72 422.681 492.223 429.037 486.861C435.491 481.499 443.46 478.818 452.945 478.818C462.43 478.818 470.35 481.499 476.706 486.861C483.062 492.223 486.24 499.72 486.24 509.352C486.24 518.587 482.671 525.786 475.533 530.949ZM462.479 501.458C460.034 499.273 456.856 498.181 452.945 498.181C449.034 498.181 445.856 499.273 443.411 501.458C440.967 503.643 439.744 506.621 439.744 510.395C439.744 514.168 440.967 517.197 443.411 519.48C445.856 521.665 449.034 522.757 452.945 522.757C456.856 522.757 460.034 521.665 462.479 519.48C464.923 517.197 466.146 514.168 466.146 510.395C466.146 506.621 464.923 503.643 462.479 501.458ZM440.771 564.164C443.9 566.646 447.958 567.887 452.945 567.887C457.932 567.887 461.941 566.646 464.972 564.164C468.101 561.582 469.666 558.007 469.666 553.44C469.666 548.971 468.101 545.496 464.972 543.014C461.941 540.432 457.932 539.141 452.945 539.141C447.958 539.141 443.9 540.432 440.771 543.014C437.74 545.496 436.224 548.971 436.224 553.44C436.224 558.007 437.74 561.582 440.771 564.164Z" fill="#3E3D5F"/>
<path d="M251.397 566.092H297.63V586.109H224V569.428L269.299 499.977H225.09V479.96H296.696V496.489L251.397 566.092Z" fill="#3E3D5F"/>
<path d="M355.653 586.109C343.744 586.109 333.972 582.838 326.338 576.297C318.704 569.756 314.887 560.984 314.887 549.983V479.96H335.804V548.347C335.804 553.798 337.382 558.11 340.538 561.281C343.795 564.453 348.833 566.039 355.653 566.039C362.473 566.039 367.46 564.453 370.615 561.281C373.873 558.11 375.501 553.798 375.501 548.347V479.96H396.571V549.983C396.571 560.984 392.754 569.756 385.12 576.297C377.486 582.838 367.664 586.109 355.653 586.109Z" fill="#3E3D5F"/>
<path d="M568.165 587.25L546.557 550.401H530.465V587.25H509.316V481.101H552.227C562.137 481.101 570.566 484.538 577.514 491.413C584.461 498.287 587.935 506.577 587.935 516.282C587.935 522.853 586.045 528.969 582.265 534.631C578.484 540.191 573.478 544.386 567.246 547.217L591 587.25H568.165ZM530.465 500.663V532.053H552.227C556.212 532.053 559.634 530.536 562.495 527.504C565.356 524.37 566.786 520.629 566.786 516.282C566.786 511.935 565.356 508.245 562.495 505.212C559.634 502.179 556.212 500.663 552.227 500.663H530.465Z" fill="#3E3D5F"/>
<path d="M441.177 351.215H427.688L332.432 444.803V459.682H348.007L441.177 363.452V351.215Z" fill="#3E3D5F"/>
<path fill-rule="evenodd" clip-rule="evenodd" d="M378.04 417.686V312H483.726V417.686H378.04ZM467.317 328.41H394.45V401.278H467.317V328.41Z" fill="#DC1E82"/>
<path d="M332.432 351.215V368.041H423.516V459.543H441.177V351.215H332.432Z" fill="#3E3D5F"/>
</svg>
